<svg xmlns="http://www.w3.org/2000/svg" width="24" height="24" fill="none" viewBox="0 0 48 48"><path fill="#fff" d="M29.714 24a5.714 5.714 0 1 1-11.428 0 5.714 5.714 0 0 1 11.428 0"/><path fill="#fff" fill-rule="evenodd" d="M24 48c12.09 0 22.093-8.94 23.757-20.571H33.701c-1.413 3.995-5.222 6.857-9.7 6.857-4.48 0-8.29-2.863-9.701-6.857H.243C1.907 39.059 11.91 48 24 48m-9.7-27.429H.243C1.907 8.941 11.91 0 24 0c12.09 0 22.093 8.94 23.757 20.571H33.701c-1.413-3.995-5.222-6.857-9.7-6.857-4.48 0-8.29 2.862-9.701 6.857M29.714 24a5.714 5.714 0 1 1-11.428 0 5.714 5.714 0 0 1 11.428 0" clip-rule="evenodd"/></svg>